<svg width="58" height="56" viewBox="0 0 58 56" fill="none" xmlns="http://www.w3.org/2000/svg">
<g clip-path="url(#clip0_29_323)">
<path d="M57.25 23.4839H55.1887L52.1164 25.0755C51.7706 24.8877 51.4109 24.7285 51.023 24.6327L47.1584 23.6806V23.2479C48.8681 22.073 49.9113 20.1321 49.9113 18.0645V16.4856C49.9113 12.9768 47.119 10.0404 43.687 9.93813C43.5128 9.93372 43.3412 9.93989 43.1688 9.94827L44.1708 7.63861L39.3131 2.85698L36.4495 4.6921C35.3615 4.08877 34.2108 3.61908 33.0158 3.28963L32.3085 0H25.3174L24.6101 3.29051C23.4151 3.61996 22.2635 4.08965 21.1764 4.69298L18.3128 2.85786L13.4592 7.63684L14.4441 9.94827C14.4065 9.94651 14.3707 9.93989 14.3331 9.93901C12.5763 9.88873 10.9217 10.5198 9.66485 11.7212C8.40619 12.9217 7.71371 14.5328 7.71371 16.2581V18.0645C7.71371 20.1321 8.75602 22.0721 10.4657 23.247V23.6806L7.94484 24.3011L3.37561 21.6774H0.375V40.3933L9.39968 43.3548H11.1573L11.3768 42.598L14.1431 44.2329C14.1884 45.7139 15.3946 46.9056 16.8974 46.9576C16.9503 48.4311 18.1529 49.6152 19.6494 49.6673C19.7023 51.1408 20.9049 52.3249 22.4014 52.377C22.4561 53.8848 23.7103 55.0968 25.2542 55.0968C25.8276 55.0968 26.3897 54.9208 26.8623 54.6072L27.6748 55.3138C28.1841 55.7552 28.8398 56 29.5207 56H29.6904C31.2169 56 32.459 54.785 32.4783 53.2868C33.9882 53.2678 35.211 52.0638 35.2303 50.5771C36.7411 50.5582 37.9648 49.3524 37.9823 47.8648C39.507 47.8295 40.7379 46.603 40.7379 45.0934C40.7379 45.0025 40.7334 44.913 40.724 44.8226L57.25 36.6874V23.4839ZM48.0766 16.4856V18.0645C48.0766 19.6677 47.1969 21.1654 45.7806 21.9729L45.3219 22.234L45.3255 25.0923L49.9086 26.2196L39.8206 31.4475V29.0144C39.8206 27.8002 39.3225 26.6884 38.5068 25.8667L41.6552 25.0923V22.2318L41.1975 21.9711C39.782 21.1654 38.9032 19.6677 38.9032 18.0645V16.2581C38.9032 15.0263 39.3977 13.8743 40.2967 13.0165C41.1948 12.1591 42.3862 11.6969 43.6319 11.7446C46.0825 11.8169 48.0766 13.944 48.0766 16.4856ZM30.1957 30.7375L26.043 29.4307C24.1506 28.8335 22.1022 28.7445 20.165 29.167L19.6391 29.2816V29.0144C19.6391 27.7689 20.4969 26.6875 21.7233 26.385L26.9778 25.0923V22.2318L26.5201 21.9711C25.1046 21.1654 24.2258 19.6677 24.2258 18.0645V16.2581C24.2258 15.0263 24.7203 13.8743 25.6193 13.0165C26.5174 12.1591 27.7164 11.6969 28.9545 11.7446C31.4051 11.8169 33.3992 13.944 33.3992 16.4856V18.0645C33.3992 19.6677 32.5195 21.1654 31.1032 21.9729L30.6445 22.234L30.6481 25.0923L35.9017 26.385C37.1281 26.6875 37.9859 27.7689 37.9859 29.0144V32.3988L37.7592 32.5161H37.1971L31.5574 30.9293C31.113 30.8054 30.6552 30.7547 30.1957 30.7375ZM19.8447 13.5184C21.5674 10.2319 25.0347 8.12903 28.8125 8.12903C32.5544 8.12903 36.007 10.2036 37.7427 13.4456C37.3059 14.3078 37.0686 15.2627 37.0686 16.2581V18.0645C37.0686 20.1321 38.1109 22.0721 39.8206 23.247V23.6806L36.1512 24.5851L32.481 23.6806V23.2479C34.1907 22.073 35.2339 20.1321 35.2339 18.0645V16.4856C35.2339 12.9768 32.4415 10.0404 29.0096 9.93813C27.2537 9.88741 25.5982 10.519 24.3414 11.7203C23.0836 12.9217 22.3911 14.5328 22.3911 16.2581V18.0645C22.3911 20.1321 23.4334 22.0721 25.1431 23.247V23.6806L21.4738 24.5851L17.8035 23.6806V23.2479C19.5132 22.073 20.5565 20.1321 20.5565 18.0645V16.4856C20.5565 15.4228 20.2967 14.4137 19.8447 13.5184ZM15.6258 8.05582L18.5565 5.17017L21.1361 6.82315L21.6297 6.52501C22.8664 5.77879 24.203 5.23236 25.6018 4.90291L26.1662 4.76972L26.8045 1.80645H30.8214L31.4579 4.76884L32.0223 4.90159C33.4211 5.23148 34.7577 5.77791 35.9944 6.52413L36.488 6.82227L39.0676 5.16929L41.9948 8.05229L40.9543 10.451C40.2461 10.7509 39.5894 11.173 39.0179 11.7186C38.9803 11.7547 38.948 11.7935 38.9113 11.8306C36.7501 8.4479 32.9293 6.32258 28.8125 6.32258C24.6661 6.32258 20.8346 8.46774 18.6788 11.8848C18.1019 11.2903 17.4156 10.8087 16.6551 10.4722L15.6258 8.05582ZM12.3004 25.0923V22.2318L11.8426 21.9711C10.4272 21.1654 9.54839 19.6677 9.54839 18.0645V16.2581C9.54839 15.0263 10.0429 13.8743 10.9419 13.0165C11.8399 12.1591 13.0341 11.6969 14.2771 11.7446C16.7276 11.8169 18.7218 13.944 18.7218 16.4856V18.0645C18.7218 19.6677 17.8421 21.1654 16.4257 21.9729L15.9671 22.234L15.9707 25.0923L19.1182 25.8667C18.3025 26.6884 17.8044 27.8002 17.8044 29.0144V29.6834L14.9431 30.3097L15.0175 30.0539L15.0524 28.3846L10.2144 25.6057L12.3004 25.0923ZM2.20968 23.4839H2.87842L9.47582 27.2727L6.14689 40.3832L2.20968 39.0905V23.4839ZM9.6971 41.5484L7.89153 40.9561L11.1255 28.2205L13.2177 29.4219V29.6799L9.77414 41.5484H9.6971ZM15.9698 44.1487C15.9698 43.8823 16.0791 43.6212 16.2708 43.4325L17.8833 41.8448C18.075 41.656 18.3401 41.5484 18.6107 41.5484C19.1778 41.5484 19.6391 42.0026 19.6391 42.561C19.6391 42.8274 19.5298 43.0885 19.3381 43.2772L17.7256 44.8649C17.5339 45.0537 17.2687 45.1613 16.9982 45.1613C16.4311 45.1613 15.9698 44.707 15.9698 44.1487ZM18.7218 46.8584C18.7218 46.592 18.8311 46.3309 19.0228 46.1421L20.6353 44.5544C20.827 44.3657 21.0922 44.2581 21.3627 44.2581C21.9298 44.2581 22.3911 44.7123 22.3911 45.2707C22.3911 45.537 22.2818 45.7981 22.0901 45.9869L20.4776 47.5746C20.2859 47.7634 20.0207 47.871 19.7502 47.871C19.1831 47.871 18.7218 47.4167 18.7218 46.8584ZM21.4738 49.568C21.4738 49.3017 21.5831 49.0406 21.7748 48.8518L23.3873 47.2641C23.579 47.0754 23.8442 46.9677 24.1147 46.9677C24.6818 46.9677 25.1431 47.422 25.1431 47.9803C25.1431 48.2467 25.0339 48.5078 24.8421 48.6966L23.2296 50.2843C23.0379 50.473 22.7728 50.5806 22.5022 50.5806C21.9351 50.5806 21.4738 50.1264 21.4738 49.568ZM25.2542 53.2903C24.6872 53.2903 24.2258 52.8361 24.2258 52.2777C24.2258 52.0113 24.3351 51.7503 24.5268 51.5615L26.1393 49.9738C26.331 49.785 26.5962 49.6774 26.8667 49.6774C27.4338 49.6774 27.8952 50.1317 27.8952 50.69C27.8952 50.9564 27.7859 51.2175 27.5942 51.4062L25.9817 52.9939C25.7899 53.1827 25.5248 53.2903 25.2542 53.2903ZM29.6904 54.1935H29.5207C29.2868 54.1935 29.0629 54.1098 28.8886 53.9576L28.2024 53.3618L28.8913 52.6835C29.1372 52.4413 29.3281 52.1534 29.4692 51.8442L30.3032 52.5278C30.5213 52.7068 30.6472 52.9706 30.6472 53.2515C30.6472 53.771 30.2181 54.1935 29.6904 54.1935ZM37.9169 46.0645H37.7583C37.5281 46.0645 37.3033 45.9842 37.1272 45.8387L32.1526 41.757L30.9773 43.1453L35.8081 47.1084C36.0253 47.2875 36.1512 47.5512 36.1512 47.8322C36.1512 48.3517 35.7221 48.7742 35.1945 48.7742H34.9942C34.7716 48.7742 34.5539 48.6966 34.3824 48.5554L29.3997 44.4676L28.2244 45.8559L33.0552 49.8194C33.2733 49.9972 33.3992 50.2609 33.3992 50.5418C33.3992 51.0614 32.9701 51.4839 32.4424 51.4839C32.0904 51.4839 31.7473 51.3608 31.4772 51.1399L29.4297 49.4595C28.9787 48.5519 28.0519 47.919 26.9666 47.8811C26.9138 46.4076 25.7111 45.2235 24.2146 45.1714C24.1618 43.698 22.9591 42.5138 21.4626 42.4618C21.4088 40.9539 20.1547 39.7419 18.6107 39.7419C17.8568 39.7419 17.1191 40.0427 16.5861 40.5675L14.9736 42.1552C14.8773 42.2501 14.7976 42.3577 14.7165 42.4644L11.8986 40.7995L14.3689 32.2868L20.5618 30.9311C22.1864 30.5734 23.8993 30.651 25.4836 31.1503L26.8349 31.5759L22.2536 33.8313C21.2068 34.3477 20.5565 35.3846 20.5565 36.5374V36.716C20.5565 38.3844 21.9351 39.7419 23.6296 39.7419C24.1864 39.7419 24.7342 39.5929 25.2103 39.3102L28.6262 37.2933C29.3124 36.8885 30.2333 36.9771 30.8259 37.502L38.5767 44.3701C38.7841 44.5553 38.9032 44.8182 38.9032 45.0934C38.9032 45.6292 38.4611 46.0645 37.9169 46.0645ZM55.4153 35.5707L39.9608 43.1797C39.9106 43.1273 39.8582 43.0774 39.8031 43.0289L32.0536 36.1608C31.3746 35.5575 30.4967 35.2258 29.582 35.2258C28.9133 35.2258 28.2566 35.4049 27.6815 35.7445L24.2643 37.7622C24.0726 37.8759 23.8536 37.9355 23.6296 37.9355C22.9461 37.9355 22.3911 37.389 22.3911 36.716V36.5374C22.3911 36.0721 22.6536 35.6549 23.0756 35.4472L28.1926 32.928C29.0683 32.4963 30.1079 32.3997 31.0516 32.667L36.8164 34.2882L38.2125 34.3226L55.4153 25.4076V35.5707Z" fill="#19BCE4"/>
</g>
<defs>
<clipPath id="clip0_29_323">
<rect width="56.875" height="56" fill="white" transform="translate(0.375)"/>
</clipPath>
</defs>
</svg>
