<svg width="58" height="56" viewBox="0 0 58 56" fill="none" xmlns="http://www.w3.org/2000/svg">
<g clip-path="url(#clip0_29_325)">
<path d="M49.5089 21.678V20.3783C49.5089 9.11542 40.2533 0.000976562 28.8132 0.000976562C17.4016 0.000976562 8.11751 9.14221 8.11751 20.3783V21.678C3.57813 22.9455 0.110451 27.2137 0.391702 32.3733C0.695702 37.9496 5.44663 42.3118 11.0369 42.3118C13.7917 42.3118 16.0253 40.1227 16.0253 37.4085V26.1818C16.0253 23.6125 14.013 21.4942 11.4631 21.2958V20.3784C11.4631 10.9587 19.2463 3.29518 28.8132 3.29518C38.403 3.29518 46.1633 10.9351 46.1633 20.3784V21.2955C43.6163 21.4912 41.6011 23.6108 41.6011 26.1819V37.4086C41.6011 39.9776 43.6043 42.082 46.1633 42.2932C46.1633 46.7513 42.618 49.8518 38.6414 49.8518H35C34.3308 48.182 32.6769 46.9969 30.746 46.9969H26.8801C24.359 46.9969 22.3079 49.0165 22.3079 51.4988C22.3079 53.9811 24.359 56.0008 26.8801 56.0008H30.746C32.6769 56.0008 34.3308 54.8157 35 53.1459H38.6413C44.6336 53.1459 49.5088 48.3453 49.5088 42.4444V41.9043C53.7772 40.693 56.9872 36.9129 57.2346 32.3734C57.5149 27.2315 54.0641 22.9501 49.5089 21.678ZM12.6798 26.1818V37.4085C12.6798 38.2406 12.03 39.0374 10.9076 39.0164C7.08853 38.9426 3.93678 35.9471 3.73236 32.1968C3.50475 28.0227 6.86248 24.5732 11.0559 24.5732H11.0846C11.9641 24.5765 12.6798 25.2981 12.6798 26.1818ZM30.7462 52.7066H26.8802C26.2039 52.7066 25.6535 52.1647 25.6535 51.4987C25.6535 50.8328 26.2039 50.2909 26.8802 50.2909H30.7462C31.4236 50.2909 31.9744 50.8345 31.9728 51.5019C31.9709 52.1664 31.4214 52.7066 30.7462 52.7066ZM53.8939 32.1968C53.6895 35.9471 50.5378 38.9426 46.7188 39.0164C45.6169 39.0383 44.9465 38.2584 44.9465 37.4085V26.1818C44.9465 25.2981 45.6622 24.5765 46.5353 24.5732H46.5703C50.7644 24.5732 54.1215 28.0231 53.8939 32.1968Z" fill="#19BCE4"/>
<path d="M29.9946 40.896L37.7189 33.2905C40.1252 30.9213 40.1254 27.0867 37.7189 24.7173C35.5055 22.5378 31.6698 22.1009 28.8118 24.9141C25.9926 22.139 22.1515 22.5049 19.9047 24.7172C17.4983 27.0865 17.4982 30.9211 19.9047 33.2905L27.629 40.896C28.2821 41.5391 29.3413 41.5392 29.9946 40.896ZM22.2702 27.0465C23.3663 25.9673 25.1498 25.9672 26.2461 27.0465L27.6288 28.4079C28.282 29.0511 29.3412 29.0511 29.9945 28.4079L31.3772 27.0465C32.4734 25.9672 34.2568 25.9671 35.353 27.0465C36.4517 28.1281 36.452 29.8792 35.353 30.9612L28.8116 37.4019L22.2701 30.9612C21.1715 29.8795 21.1714 28.1285 22.2702 27.0465Z" fill="#19BCE4"/>
</g>
<defs>
<clipPath id="clip0_29_325">
<rect width="56.875" height="56" fill="white" transform="translate(0.375)"/>
</clipPath>
</defs>
</svg>
