<svg width="16" height="16" viewBox="0 0 16 16" fill="none" xmlns="http://www.w3.org/2000/svg">
<g clip-path="url(#clip0_29_274)">
<path d="M11.9476 5.48834C10.0889 4.44875 7.10561 2.7794 2.47835 0.188487C2.16638 -0.0175448 1.80744 -0.0445449 1.49731 0.0604241L9.43639 7.9995L11.9476 5.48834Z" fill="#32BBFF"/>
<path d="M1.49802 0.0605469C1.43989 0.0802344 1.38333 0.103984 1.32923 0.132672C0.986764 0.317922 0.735107 0.674392 0.735107 1.12524V14.874C0.735107 15.3249 0.986733 15.6813 1.32923 15.8665C1.38323 15.8952 1.43977 15.919 1.49783 15.9389L9.43709 7.99962L1.49802 0.0605469Z" fill="#32BBFF"/>
<path d="M9.43609 7.99951L1.49683 15.9387C1.80705 16.0445 2.16598 16.0196 2.47805 15.8105C6.96549 13.2977 9.91512 11.6481 11.7953 10.5997C11.8477 10.5703 11.8989 10.5415 11.9496 10.5131L9.43609 7.99951Z" fill="#32BBFF"/>
<path d="M0.735107 7.99951V14.8739C0.735107 15.3247 0.986733 15.6812 1.32923 15.8664C1.38323 15.8951 1.43977 15.9189 1.49783 15.9388L9.43709 7.99951H0.735107Z" fill="#2C9FD9"/>
<path d="M2.48063 0.188373C2.11016 -0.0562529 1.67328 -0.0492842 1.33081 0.132466L9.31817 8.11986L11.9498 5.48823C10.0911 4.44863 7.10788 2.77928 2.48063 0.188373Z" fill="#29CC5E"/>
<path d="M9.31823 7.87891L1.33081 15.8663C1.67331 16.048 2.11016 16.0585 2.48063 15.8104C6.96807 13.2975 9.9177 11.648 11.7979 10.5995C11.8502 10.5701 11.9015 10.5414 11.9522 10.5129L9.31823 7.87891Z" fill="#D93F21"/>
<path d="M15.2631 7.99945C15.2631 7.61852 15.0709 7.23408 14.69 7.02089C14.69 7.02089 13.9775 6.62336 11.7936 5.40186L9.19604 7.99945L11.7962 10.5996C13.9561 9.38689 14.6899 8.97799 14.6899 8.97799C15.0709 8.76483 15.2631 8.38039 15.2631 7.99945Z" fill="#FFD500"/>
<path d="M14.69 8.97808C15.0709 8.76489 15.2631 8.38045 15.2631 7.99951H9.19604L11.7962 10.5997C13.9561 9.38699 14.69 8.97808 14.69 8.97808Z" fill="#FFAA00"/>
</g>
<defs>
<clipPath id="clip0_29_274">
<rect width="16" height="16" fill="white"/>
</clipPath>
</defs>
</svg>
